<svg width="70" height="70" viewBox="0 0 16 16" fill="none" xmlns="http://www.w3.org/2000/svg">
<path d="M9.67589 8.40432C10.0448 8.47146 10.3577 8.66954 10.6146 8.99856C10.8715 9.32758 11 9.70024 11 10.1165C11 10.4724 10.9078 10.7947 10.7233 11.0835C10.5455 11.3655 10.2852 11.5904 9.94269 11.7583C9.60013 11.9194 9.20158 12 8.74704 12H6V5H8.61858C9.0863 5 9.48814 5.08058 9.82411 5.24173C10.1601 5.40288 10.4137 5.6211 10.585 5.8964C10.7563 6.16499 10.8419 6.46715 10.8419 6.80288C10.8419 7.20576 10.7365 7.54149 10.5257 7.81007C10.3149 8.07866 10.0316 8.27674 9.67589 8.40432ZM7.12648 7.94101H8.51976C8.88867 7.94101 9.17523 7.85707 9.37945 7.68921C9.59025 7.51463 9.69565 7.26619 9.69565 6.94388C9.69565 6.6283 9.59025 6.38321 9.37945 6.20863C9.17523 6.02734 8.88867 5.93669 8.51976 5.93669H7.12648V7.94101ZM8.64822 11.0633C9.0303 11.0633 9.33004 10.9693 9.54743 10.7813C9.76482 10.5933 9.87352 10.3314 9.87352 9.99568C9.87352 9.65324 9.75823 9.3813 9.52767 9.17986C9.2971 8.97842 8.99078 8.8777 8.6087 8.8777H7.12648V11.0633H8.64822Z" fill="white"/>
<rect x="0.5" y="0.5" width="15" height="15" rx="0.5" stroke="white"/>
</svg>
