<svg width="70" height="70" viewBox="0 0 15 17" fill="none" xmlns="http://www.w3.org/2000/svg">
<path fill-rule="evenodd" clip-rule="evenodd" d="M5.84769 15.003C5.85202 15.1054 5.84098 15.2053 5.81942 15.3064C5.78154 15.4841 5.70839 15.6721 5.60484 15.8458C5.31049 16.3396 4.81045 16.6691 4.16667 16.6691C2.65008 16.6691 2.05486 15.9251 1.3096 14.0619C0.804863 12.8001 0.566749 12.5024 0 12.5024V10.8358C1.51658 10.8358 2.1118 11.5798 2.85706 13.4429C3.3618 14.7048 3.59992 15.0024 4.16667 15.0024C4.16667 14.7606 4.16335 14.5464 4.15639 14.2564C4.14005 13.5766 4.13817 13.4378 4.16783 13.256C4.17969 12.8593 4.28211 12.5778 4.4875 12.2984C2.62766 11.8935 1.37327 11.0574 0.653311 9.70118L0.383614 9.06693C0.120871 8.31184 0 7.45628 0 6.46819C0 5.33023 0.346955 4.31275 0.995015 3.46222C0.792856 2.65377 0.820542 1.66602 1.26692 0.550502L1.41278 0.185997L1.78672 0.0663832C1.83679 0.0503684 1.89765 0.0359043 1.96916 0.0246816C2.6973 -0.0896015 3.73342 0.183066 5.08796 1.0507C5.88647 0.8656 6.72737 0.772145 7.57398 0.772145C8.33053 0.772145 9.08288 0.848415 9.80136 0.998783C11.1192 0.173505 12.1269 -0.0853345 12.8354 0.0248281C12.9061 0.0358173 12.9663 0.0500045 13.016 0.06575L13.3923 0.185071L13.5383 0.551799C13.9288 1.53242 13.9958 2.43614 13.8537 3.22691C14.5987 4.12084 15 5.21982 15 6.46819C15 7.52064 14.9246 8.31202 14.7079 9.08192L14.4791 9.70972C13.8802 11.0645 12.5596 11.91 10.5229 12.3127C10.7346 12.6058 10.8333 12.9033 10.8333 13.3358V14.1691C10.8333 14.5729 10.8333 14.5854 10.8324 15.0024C10.8343 15.0324 10.8368 15.0471 10.8395 15.0562L10.8333 16.6691C10.1235 16.6691 9.59572 16.3229 9.33615 15.7769C9.20156 15.4938 9.16135 15.2234 9.16667 14.9906V13.3358C9.16667 13.2659 9.16424 13.2619 8.99408 13.0917C8.53924 12.6369 8.33333 12.2937 8.33333 11.6691V10.9153L9.0834 10.8399C11.3161 10.6157 12.5304 9.99567 12.9331 9.08987L13.1212 8.5755C13.2709 8.03768 13.3333 7.38271 13.3333 6.46819C13.3333 5.49645 12.9941 4.69372 12.3525 4.05238L11.9998 3.69987L12.1438 3.22246C12.2716 2.79834 12.302 2.29649 12.1668 1.72408C12.1443 1.72978 12.1209 1.73598 12.0967 1.74274C11.6505 1.86696 11.0934 2.13351 10.422 2.58224L10.1158 2.78691L9.75838 2.69827C9.06699 2.52683 8.32404 2.43881 7.57398 2.43881C6.73989 2.43881 5.91539 2.54493 5.15372 2.75258L4.782 2.85392L4.46402 2.63638C3.76969 2.1614 3.19288 1.87892 2.73035 1.74697C2.69732 1.73755 2.66587 1.72912 2.63597 1.7216C2.4746 2.38409 2.53843 2.92838 2.70186 3.3368L2.89782 3.82651L2.53907 4.21318C1.96741 4.82933 1.66667 5.57914 1.66667 6.46819C1.66667 7.28216 1.76195 7.95663 1.93657 8.46469L2.15464 8.98088C2.69978 10.0038 3.85767 10.6192 5.92215 10.8405L6.66667 10.9203V11.6691C6.66667 12.2937 6.46076 12.6369 6.00592 13.0917C5.83576 13.2619 5.83333 13.2659 5.83333 13.3358L5.81897 13.4898C5.80946 13.5404 5.80946 13.6708 5.82257 14.2164C5.8286 14.4673 5.83204 14.6658 5.83303 14.8734C5.84299 14.9163 5.84449 14.944 5.84769 15.003Z" fill="white"/>
</svg>
