<svg width="70" height="70" viewBox="0 0 16 16" fill="none" xmlns="http://www.w3.org/2000/svg">
<path d="M8.28 7.0719V11.0799C8.28 11.5759 8.128 11.9679 7.824 12.2559C7.52533 12.5439 7.13067 12.6879 6.64 12.6879C6.14933 12.6879 5.752 12.5439 5.448 12.2559C5.14933 11.9679 5 11.5759 5 11.0799H5.92C5.92533 11.3252 5.98667 11.5199 6.104 11.6639C6.22667 11.8079 6.40533 11.8799 6.64 11.8799C6.87467 11.8799 7.05333 11.8079 7.176 11.6639C7.29867 11.5146 7.36 11.3199 7.36 11.0799V7.0719H8.28Z" fill="white"/>
<path d="M11.748 12.688C11.3747 12.688 11.0387 12.624 10.74 12.496C10.4413 12.3627 10.2067 12.176 10.036 11.936C9.86533 11.696 9.78 11.416 9.78 11.096H10.756C10.7773 11.336 10.8707 11.5333 11.036 11.688C11.2067 11.8427 11.444 11.92 11.748 11.92C12.0627 11.92 12.308 11.8453 12.484 11.696C12.66 11.5413 12.748 11.344 12.748 11.104C12.748 10.9173 12.692 10.7653 12.58 10.648C12.4733 10.5307 12.3373 10.44 12.172 10.376C12.012 10.312 11.788 10.2427 11.5 10.168C11.1373 10.072 10.8413 9.976 10.612 9.88C10.388 9.77867 10.196 9.624 10.036 9.416C9.876 9.208 9.796 8.93067 9.796 8.584C9.796 8.264 9.876 7.984 10.036 7.744C10.196 7.504 10.42 7.32 10.708 7.192C10.996 7.064 11.3293 7 11.708 7C12.2467 7 12.6867 7.136 13.028 7.408C13.3747 7.67467 13.5667 8.04267 13.604 8.512H12.596C12.58 8.30933 12.484 8.136 12.308 7.992C12.132 7.848 11.9 7.776 11.612 7.776C11.3507 7.776 11.1373 7.84267 10.972 7.976C10.8067 8.10933 10.724 8.30133 10.724 8.552C10.724 8.72267 10.7747 8.864 10.876 8.976C10.9827 9.08267 11.116 9.168 11.276 9.232C11.436 9.296 11.6547 9.36533 11.932 9.44C12.3 9.54133 12.5987 9.64267 12.828 9.744C13.0627 9.84533 13.26 10.0027 13.42 10.216C13.5853 10.424 13.668 10.704 13.668 11.056C13.668 11.3387 13.5907 11.6053 13.436 11.856C13.2867 12.1067 13.0653 12.3093 12.772 12.464C12.484 12.6133 12.1427 12.688 11.748 12.688Z" fill="white"/>
<rect x="0.5" y="0.5" width="15" height="15" rx="0.5" stroke="white"/>
</svg>
